<?xml version="1.0" standalone="no"?>
<!DOCTYPE svg PUBLIC "-//W3C//DTD SVG 20010904//EN"
 "http://www.w3.org/TR/2001/REC-SVG-20010904/DTD/svg10.dtd">
<svg version="1.0" xmlns="http://www.w3.org/2000/svg"
 width="200.000000pt" height="85.000000pt" viewBox="0 0 200.000000 85.000000"
 preserveAspectRatio="xMidYMid meet">
<metadata>
Created by potrace 1.10, written by Peter Selinger 2001-2011
</metadata>
<g transform="translate(0.000000,85.000000) scale(0.100000,-0.100000)"
fill="#000000" stroke="none">
<path d="M775 759 c-263 -25 -505 -102 -613 -194 -252 -217 120 -455 753 -481
566 -24 1060 164 996 378 -62 205 -605 347 -1136 297z m420 -29 c55 -5 120
-13 145 -16 75 -9 295 -65 302 -77 4 -7 8 -9 8 -5 0 9 119 -50 157 -78 71 -54
98 -127 68 -185 -33 -62 -136 -128 -270 -172 -332 -109 -763 -117 -1137 -23
-105 27 -246 92 -295 136 -82 74 -82 155 2 228 29 26 103 71 125 77 3 1 23 10
45 20 90 40 305 83 485 98 95 8 276 6 365 -3z"/>
<path d="M466 471 c-22 -24 -21 -78 2 -90 11 -6 39 -11 63 -11 109 -3 249 -4
399 -2 30 0 179 1 330 1 306 2 314 4 291 60 -26 62 1 59 -558 59 -476 1 -512
-1 -527 -17z m50 -12 c3 -6 0 -15 -7 -20 -11 -7 -12 -9 -1 -9 8 0 22 10 32 22
15 19 20 20 33 10 12 -10 17 -10 23 -1 5 9 11 7 21 -7 11 -15 16 -16 22 -6 5
9 30 13 77 12 38 0 104 0 146 1 77 3 107 -4 74 -17 -9 -3 -16 -17 -16 -30 0
-13 -4 -24 -10 -24 -5 0 -10 11 -10 24 0 17 -7 25 -25 28 -29 6 -31 2 -10 -18
8 -9 15 -19 15 -24 0 -13 -114 -9 -123 4 -6 8 -10 8 -14 -1 -7 -18 -93 -17
-93 0 0 7 -9 13 -20 13 -11 0 -20 -5 -20 -12 0 -8 -22 -11 -65 -10 -38 0 -64
5 -63 11 2 5 10 9 18 7 9 -1 6 3 -5 9 -29 17 -29 17 -15 34 15 18 26 19 36 4z
m497 -30 c-3 -23 -2 -23 12 -5 8 11 15 26 15 33 0 23 19 14 26 -12 3 -14 10
-25 16 -25 5 0 7 8 3 19 -4 13 0 20 15 24 24 6 34 -6 25 -33 -5 -14 -2 -20 9
-20 9 0 16 -4 16 -10 0 -14 -74 -12 -89 3 -11 10 -14 10 -18 0 -3 -7 -13 -13
-23 -13 -10 0 -21 6 -24 13 -5 10 -7 10 -12 0 -11 -24 -24 -13 -24 20 0 41 6
48 33 37 15 -5 21 -15 20 -31z m157 24 c1 -16 2 -16 15 1 13 17 15 18 21 2 6
-15 7 -15 21 1 13 16 14 15 9 -17 -5 -33 -5 -34 9 -16 8 11 15 23 15 28 0 13
50 9 50 -4 1 -8 6 -6 14 5 9 12 16 14 21 7 4 -6 1 -18 -6 -26 -6 -8 -9 -17 -6
-21 4 -3 12 6 18 21 14 31 29 34 36 6 3 -11 9 -17 14 -14 5 3 7 10 4 15 -4 5
-3 14 1 21 5 8 11 6 19 -6 11 -15 13 -15 19 -1 9 23 28 7 20 -17 -4 -14 -2
-18 5 -14 6 4 11 13 11 21 0 29 19 24 39 -10 20 -35 13 -57 -14 -35 -9 7 -15
8 -20 0 -10 -16 -36 -12 -51 8 -13 16 -13 16 -14 0 0 -20 -20 -24 -37 -7 -8 8
-13 8 -17 0 -9 -14 -73 -14 -81 -1 -4 7 -11 7 -18 2 -17 -13 -57 -8 -68 9 -7
11 -9 11 -9 -3 0 -10 -4 -18 -8 -18 -10 0 -32 45 -32 65 0 21 20 18 20 -2z"/>
<path d="M690 440 c0 -5 5 -10 11 -10 5 0 7 -4 4 -10 -3 -5 -2 -10 3 -10 14 0
21 11 15 26 -6 16 -33 19 -33 4z"/>
<path d="M805 440 c-3 -5 1 -10 10 -10 9 0 13 5 10 10 -3 6 -8 10 -10 10 -2 0
-7 -4 -10 -10z"/>
<path d="M550 425 c0 -9 5 -15 11 -13 6 2 11 8 11 13 0 5 -5 11 -11 13 -6 2
-11 -4 -11 -13z"/>
<path d="M770 420 c0 -5 7 -10 16 -10 8 0 12 5 9 10 -3 6 -10 10 -16 10 -5 0
-9 -4 -9 -10z"/>
<path d="M1290 431 c0 -5 5 -13 10 -16 6 -3 10 -2 10 4 0 5 -4 13 -10 16 -5 3
-10 2 -10 -4z"/>
</g>
</svg>
