<svg xmlns="http://www.w3.org/2000/svg" version="1.0" preserveAspectRatio="xMidYMid meet" viewBox="0 19.98 104 64.04">
<metadata>
Created by potrace 1.16, written by Peter Selinger 2001-2019
</metadata>
<g transform="translate(0.000000,104.000000) scale(0.017333,-0.017333)" fill="#000000" stroke="none">
<path d="M500 4842 c-16 -5 -26 -17 -28 -31 -4 -26 50 -81 132 -133 49 -32 53 -33 141 -29 166 8 212 4 192 -15 -13 -13 -95 -23 -194 -24 -70 0 -104 -4 -110 -12 -4 -7 -10 -284 -13 -616 l-5 -604 -31 -26 c-17 -15 -43 -36 -58 -47 -41 -29 -44 -66 -52 -552 -7 -424 -7 -424 -28 -419 -12 2 -60 8 -107 11 l-86 7 -5 -120 c-4 -133 -20 -176 -61 -170 -28 4 -35 32 -36 143 -2 130 -4 135 -60 135 -25 0 -56 -3 -68 -6 l-23 -6 0 -339 0 -339 59 0 c86 0 95 12 86 116 -8 101 1 124 50 124 43 0 49 -11 70 -130 23 -132 21 -130 109 -130 61 0 78 4 102 22 27 22 39 23 236 26 223 4 382 -8 443 -34 31 -13 51 -14 102 -7 34 5 67 7 71 4 5 -3 15 -30 22 -59 23 -97 103 -186 261 -289 l77 -50 -172 -6 c-240 -10 -928 -8 -944 1 -9 6 -1 23 29 63 50 67 138 243 146 294 8 49 -12 65 -83 65 -62 0 -80 -14 -90 -68 -23 -138 -63 -236 -123 -303 l-38 -43 -150 -10 c-148 -11 -183 -21 -183 -51 0 -7 12 -16 28 -20 78 -23 5510 -11 5765 12 45 4 65 9 58 16 -6 6 -212 11 -548 14 -532 4 -663 8 -663 22 0 4 26 19 58 35 97 47 197 114 239 159 78 85 163 254 163 327 0 21 8 34 26 47 23 15 70 17 398 22 204 3 377 10 384 14 6 5 12 24 12 44 0 27 -8 43 -36 71 -20 20 -41 47 -48 62 -8 18 -12 318 -16 1085 l-5 1060 -84 52 c-47 30 -121 65 -165 80 -74 25 -94 27 -241 27 -145 0 -167 -3 -237 -26 -104 -34 -174 -80 -188 -122 -5 -17 -14 -86 -19 -151 -11 -137 -17 -159 -40 -150 -45 18 -257 36 -376 33 l-130 -3 -100 -50 -100 -50 4 -235 c4 -244 -1 -300 -25 -300 -20 0 -22 22 -28 251 -5 223 -12 257 -64 313 -15 16 -51 39 -81 53 -29 13 -69 36 -88 50 -31 24 -41 26 -118 24 -85 -1 -121 11 -64 23 18 3 53 6 80 6 52 0 61 11 33 41 -15 17 -15 20 0 43 9 14 16 34 16 44 0 27 -42 62 -82 69 -51 8 -78 -21 -78 -85 0 -56 -6 -67 -42 -76 -25 -6 -28 -11 -28 -51 0 -52 -9 -60 -120 -105 l-77 -31 -19 -252 -19 -252 -70 -29 c-62 -27 -83 -30 -184 -33 -103 -2 -118 -5 -153 -28 -105 -69 -281 -108 -493 -108 -160 1 -257 18 -344 62 -57 29 -57 39 -2 33 34 -3 51 0 57 9 5 8 11 138 14 289 l5 275 18 -110 c28 -165 38 -205 49 -205 8 0 9 54 4 178 -7 187 -2 272 18 252 15 -15 23 -280 15 -480 -6 -152 -8 -165 -28 -178 -28 -19 -27 -48 2 -56 36 -10 286 -7 377 4 73 9 308 64 318 75 2 2 -12 30 -32 62 -47 77 -54 131 -62 497 l-7 297 -26 18 c-14 10 -62 37 -106 60 -88 48 -125 77 -125 99 0 9 14 37 31 64 l32 49 -20 27 c-27 36 -49 39 -72 10 -18 -21 -27 -23 -121 -23 -94 0 -103 2 -121 23 -22 28 -53 25 -57 -5 -2 -12 8 -44 22 -72 14 -28 26 -57 26 -65 0 -30 -51 -73 -153 -126 l-105 -55 -6 -215 c-12 -366 -24 -527 -41 -564 -21 -43 -81 -85 -148 -103 -44 -12 -479 -32 -707 -32 -42 -1 -51 5 -137 80 l-93 81 0 402 c1 535 12 832 33 872 9 17 41 50 71 73 68 50 75 82 24 102 -37 14 -574 23 -618 11z m1827 -778 l17 -27 226 6 c170 5 219 4 200 -5 -28 -12 -483 -24 -526 -14 -26 7 -26 7 -8 28 17 18 47 36 66 37 4 1 15 -11 25 -25z m3223 -90 c48 -20 98 -71 112 -114 18 -55 24 -960 6 -971 -7 -5 -115 -9 -240 -9 l-227 0 -5 43 c-23 185 -9 906 18 971 17 40 82 82 147 96 54 11 142 3 189 -16z m-1231 -659 c1 -159 4 -421 8 -581 l6 -291 36 8 c137 32 382 -14 494 -93 47 -33 24 -31 -71 6 -123 48 -171 58 -282 57 -176 0 -262 -42 -429 -205 -81 -79 -100 -93 -86 -66 46 91 157 201 253 249 l42 21 0 588 c0 323 3 612 7 642 l7 55 7 -50 c4 -27 8 -180 8 -340z m661 -230 c0 -291 -3 -588 -7 -660 -8 -130 -8 -130 -14 -55 -16 195 -5 1286 12 1258 5 -7 9 -251 9 -543z m-1182 205 l-3 -85 -70 1 c-104 2 -207 50 -191 89 4 12 11 11 40 -9 20 -13 65 -29 103 -35 37 -7 75 -14 84 -15 15 -3 16 12 13 148 l-3 151 14 -80 c8 -44 14 -118 13 -165z m-298 -55 c39 -19 96 -42 128 -51 76 -20 258 -20 346 0 37 9 79 16 94 16 l27 0 -25 -20 c-97 -74 -422 -73 -549 2 -75 44 -101 63 -101 76 0 17 2 16 80 -23z m-2299 -547 c4 -172 8 -316 9 -320 0 -5 24 -8 53 -8 29 0 58 -5 65 -12 7 -7 12 -35 11 -62 l-1 -51 -9 44 c-5 25 -13 49 -19 55 -6 6 -42 12 -80 14 l-70 4 0 153 c0 248 12 517 23 506 5 -5 13 -150 18 -323z m1461 294 c8 -8 14 -50 16 -117 l4 -105 -473 1 c-261 1 -512 4 -559 7 l-85 7 -3 103 -3 102 63 1 c35 1 164 5 288 9 351 12 736 8 752 -8z m643 -281 c130 -33 273 -111 367 -199 114 -108 202 -248 222 -352 l7 -35 -26 30 c-14 17 -44 64 -67 105 -149 271 -380 422 -668 437 -182 10 -321 -29 -477 -133 -142 -95 -259 -265 -304 -445 -31 -121 -24 -150 43 -164 33 -6 58 -49 58 -98 0 -37 -12 -47 -56 -47 -45 0 -60 17 -98 110 -76 182 -192 280 -376 318 -67 14 -91 14 -161 4 -120 -17 -191 -54 -293 -153 -99 -94 -121 -84 -26 11 83 83 157 128 238 145 85 19 284 19 335 1 64 -23 146 -79 205 -138 32 -32 65 -58 74 -58 23 0 38 30 38 74 0 19 11 69 24 111 82 257 302 444 584 495 76 14 268 4 357 -19z m-67 -107 c140 -29 269 -100 373 -206 97 -100 182 -248 158 -273 -12 -12 -317 -9 -349 3 l-21 8 20 18 c18 16 21 17 21 4 0 -9 7 -19 16 -22 25 -10 170 -7 198 4 32 12 34 47 6 83 -11 14 -20 36 -20 50 0 33 -58 106 -118 151 -38 27 -59 36 -90 36 -59 0 -73 8 -66 36 7 27 2 29 -26 12 -15 -10 -22 -9 -38 6 -30 27 -107 46 -209 53 -73 5 -93 3 -93 -7 0 -7 7 -18 16 -24 12 -10 2 -11 -51 -8 -58 4 -68 2 -81 -16 -8 -11 -43 -30 -79 -42 -79 -26 -172 -94 -232 -169 -50 -62 -103 -164 -103 -198 0 -29 -17 -73 -29 -73 -19 0 -22 41 -7 102 84 334 444 546 804 472z m255 -250 c-1 -5 -4 -26 -8 -46 -6 -32 -5 -38 10 -38 14 0 13 -4 -8 -20 -14 -11 -34 -20 -45 -20 -10 0 -50 -27 -87 -60 -62 -55 -85 -69 -85 -54 0 34 193 259 215 250 5 -2 9 -7 8 -12z m1199 -14 c77 -24 170 -78 223 -131 55 -54 28 -50 -80 12 -106 61 -154 79 -207 79 -46 0 -58 -21 -58 -105 0 -63 -15 -109 -31 -99 -8 5 -10 34 -6 90 7 113 2 118 -94 112 -74 -5 -139 -28 -139 -50 0 -7 23 -36 52 -65 76 -77 46 -83 -47 -8 -22 17 -46 35 -52 39 -8 4 -37 -13 -73 -44 -34 -27 -66 -50 -71 -50 -17 0 23 58 74 111 122 124 322 167 509 109z m-3445 -47 c23 -34 30 -229 14 -410 -12 -147 -22 -186 -49 -181 -15 3 -18 21 -22 165 -4 143 -7 164 -25 183 l-20 23 -335 -7 c-312 -6 -399 -1 -338 19 12 4 179 10 371 12 l347 5 0 83 c0 125 21 164 57 108z m-860 -40 c34 -81 25 -482 -13 -555 -14 -28 -17 -29 -32 -15 -32 32 -42 531 -12 587 17 31 39 24 57 -17z m681 28 c20 -12 -126 -21 -353 -21 -205 0 -289 9 -210 21 61 9 548 10 563 0z m2103 -90 c16 -16 29 -39 29 -51 0 -24 -1 -24 -81 6 -38 15 -52 16 -73 6 -22 -10 -26 -18 -26 -56 0 -53 14 -67 75 -74 34 -3 50 0 64 13 31 27 173 34 676 34 723 0 788 -11 840 -152 15 -42 20 -48 39 -43 54 16 77 17 127 7 124 -26 104 -44 -54 -51 -108 -4 -122 -7 -125 -23 -5 -23 12 -35 143 -107 108 -59 121 -78 87 -120 -14 -17 -25 -21 -44 -17 -37 10 -165 132 -180 173 -14 39 -15 39 -81 19 -31 -9 -56 -11 -71 -5 -29 11 -96 88 -96 110 0 41 81 93 129 84 35 -7 42 9 12 25 -83 45 -1277 50 -1402 7 -63 -22 -78 -20 -136 19 -31 21 -64 35 -83 35 -31 0 -171 -51 -154 -57 5 -2 50 -7 99 -11 85 -8 88 -9 60 -21 -16 -7 -55 -17 -85 -22 -30 -5 -98 -29 -150 -54 -52 -24 -87 -39 -76 -32 10 6 45 29 77 49 40 26 59 44 59 58 0 27 -8 26 -124 -15 -66 -23 -103 -32 -110 -25 -13 13 18 47 66 71 44 22 53 35 39 53 -8 10 -4 12 18 8 78 -11 287 73 319 128 23 40 60 59 115 60 40 0 53 -5 78 -29z m-2065 6 c4 -4 4 -10 1 -14 -4 -3 -136 -12 -295 -19 -158 -7 -294 -15 -303 -19 -10 -3 -20 -2 -23 3 -10 16 123 41 294 56 74 6 318 1 326 -7z m902 -36 c45 -24 138 -105 154 -134 10 -20 10 -21 -9 -7 -109 79 -154 101 -230 114 -48 8 -63 -13 -64 -92 l-1 -67 -10 45 c-20 98 -23 105 -50 114 -34 12 -131 -33 -211 -99 -32 -26 -61 -44 -65 -41 -10 11 29 75 67 108 62 55 138 74 299 77 64 1 91 -3 120 -18z m2832 3 c0 -4 -15 -27 -34 -53 -19 -26 -38 -59 -41 -73 -4 -15 -16 -30 -27 -34 -24 -7 -74 12 -82 32 -7 19 11 64 36 92 26 27 38 28 31 2 -7 -27 0 -25 49 10 38 28 68 38 68 24z m-3114 -171 l42 -48 251 -3 251 -3 0 -102 c-1 -300 -123 -473 -360 -510 -227 -35 -452 113 -500 329 -13 55 -6 106 15 124 18 15 32 -10 45 -82 13 -70 70 -185 112 -225 19 -18 47 -35 64 -39 28 -5 32 -3 38 21 7 28 40 82 76 125 l21 25 -7 -106 c-7 -120 1 -139 61 -139 59 0 91 64 43 85 -16 7 -27 25 -35 55 -11 45 -17 160 -8 160 3 0 26 -16 51 -36 55 -41 123 -78 132 -70 3 3 -18 30 -46 60 -73 77 -67 103 11 50 44 -29 56 -26 39 11 -22 47 -140 83 -171 53 -6 -7 -24 -13 -39 -13 -28 0 -31 -4 -95 -114 -32 -55 -81 -100 -93 -88 -10 10 12 53 51 102 19 23 35 44 35 47 0 3 -36 8 -80 10 -87 5 -112 17 -94 46 22 35 97 44 379 47 149 1 278 5 288 9 10 5 17 19 17 37 0 24 -5 30 -37 38 -21 5 -207 12 -413 15 -206 4 -388 10 -405 14 -45 12 -44 39 2 58 32 14 61 15 177 9 l138 -7 -7 51 c-4 28 -3 51 2 51 4 0 27 -21 49 -47z m-823 3 c-99 -11 -130 -20 -102 -31 8 -3 86 -6 174 -7 137 -3 160 -5 163 -19 1 -9 -6 -27 -17 -40 l-19 -24 -284 -3 c-175 -2 -293 0 -310 7 -21 8 -28 20 -37 62 -9 41 -9 54 1 61 7 4 130 7 273 7 250 -1 256 -2 158 -13z m2786 -76 c28 -15 -78 -25 -271 -25 -129 0 -191 4 -199 12 -11 11 13 16 141 27 69 6 312 -4 329 -14z m102 -104 c-8 -48 -28 -105 -63 -176 -45 -93 -61 -115 -147 -200 -153 -151 -221 -175 -494 -168 -137 3 -158 6 -215 30 -106 44 -172 89 -267 183 -116 113 -170 205 -145 245 7 12 13 9 34 -13 24 -26 28 -27 141 -27 117 0 135 -6 103 -38 -9 -9 -9 -12 1 -12 8 0 52 35 98 78 101 91 182 157 188 151 9 -9 -97 -138 -204 -249 -89 -92 -113 -112 -121 -100 -5 8 -10 25 -10 38 0 18 -5 23 -22 20 -40 -5 -32 -35 24 -94 l53 -55 78 91 c81 94 143 144 173 138 25 -5 52 -45 79 -119 27 -73 30 -62 14 62 -12 92 -1 228 22 271 l12 22 9 -24 c5 -14 9 -131 9 -260 -1 -266 3 -294 42 -298 34 -4 36 7 40 178 2 122 4 135 20 138 21 4 247 -97 247 -111 0 -4 -7 -24 -15 -44 -18 -42 -18 -43 -4 -43 18 0 120 103 161 164 50 73 92 163 113 246 9 36 22 74 28 85 10 19 11 19 20 -9 6 -19 6 -52 -2 -100z m255 -2 c18 -124 54 -205 130 -284 71 -75 86 -80 122 -42 23 24 40 31 88 37 32 4 72 14 87 22 30 15 57 66 57 108 0 28 11 31 58 14 29 -10 31 -13 20 -32 -16 -30 -24 -255 -9 -270 19 -19 31 5 39 84 l7 74 45 3 c25 2 62 -1 82 -8 35 -10 37 -13 31 -40 -8 -44 10 -38 79 28 66 63 100 114 124 188 17 51 58 114 75 114 15 0 10 -53 -11 -121 -61 -198 -246 -350 -474 -390 -59 -10 -78 -9 -164 11 -123 28 -199 68 -265 140 -97 106 -156 232 -178 384 -9 60 -9 79 1 92 24 28 42 -8 56 -112z m-191 -160 c-55 -148 -55 -135 1 -128 68 9 98 25 102 53 3 21 8 17 33 -28 54 -94 162 -188 304 -263 62 -33 67 -37 45 -43 -14 -3 -223 -4 -465 -3 l-440 3 80 47 c44 25 104 67 133 93 63 57 157 196 203 300 18 41 34 73 36 71 2 -2 -13 -48 -32 -102z m-1355 -179 c59 -70 142 -139 230 -191 l75 -44 -432 0 c-238 0 -433 2 -433 5 0 3 45 28 101 55 164 83 213 143 279 343 l32 98 53 -108 c30 -59 72 -130 95 -158z"/>
<path d="M2453 4580 c-12 -5 -27 -18 -33 -29 -23 -44 29 -81 112 -81 60 0 78 14 78 60 0 29 -5 42 -19 50 -24 12 -107 12 -138 0z"/>
</g>
</svg>