<?xml version="1.0" encoding="UTF-8" standalone="no" ?>
<!DOCTYPE svg PUBLIC "-//W3C//DTD SVG 1.1//EN" "http://www.w3.org/Graphics/SVG/1.1/DTD/svg11.dtd">
<svg xmlns="http://www.w3.org/2000/svg" xmlns:xlink="http://www.w3.org/1999/xlink" version="1.1" width="1080" height="1080" viewBox="0 0 1080 1080" xml:space="preserve">
<desc>Created with Fabric.js 5.2.4</desc>
<defs>
</defs>
<rect x="0" y="0" width="100%" height="100%" fill="transparent"></rect>
<g transform="matrix(1 0 0 1 540 540)" id="62bc7542-ae6d-4bc0-93e5-5112ecb8f6be"  >
<rect style="stroke: none; stroke-width: 1; stroke-dasharray: none; stroke-linecap: butt; stroke-dashoffset: 0; stroke-linejoin: miter; stroke-miterlimit: 4; fill: rgb(255,255,255); fill-rule: nonzero; opacity: 1; visibility: hidden;" vector-effect="non-scaling-stroke"  x="-540" y="-540" rx="0" ry="0" width="1080" height="1080" />
</g>
<g transform="matrix(1 0 0 1 540 540)" id="b17640b0-dc95-4e78-bccc-0d4e863081fa"  >
</g>
<g transform="matrix(1.59 0 0 1.1 540 396.88)"  >
<g style="" vector-effect="non-scaling-stroke"   >
		<g transform="matrix(0.13 0 0 -0.13 0 0)"  >
<path style="stroke: none; stroke-width: 1; stroke-dasharray: none; stroke-linecap: butt; stroke-dashoffset: 0; stroke-linejoin: miter; stroke-miterlimit: 4; fill: rgb(0,0,0); fill-rule: nonzero; opacity: 1;" vector-effect="non-scaling-stroke"  transform=" translate(-999.49, -425.5)" d="M 775 759 C 512 734 270 657 162 565 C -90 348 282 110 915 84 C 1481 60 1975 248 1911 462 C 1849 667 1306 809 775 759 z M 1195 730 C 1250 725 1315 717 1340 714 C 1415 705 1635 649 1642 637 C 1646 630 1650 628 1650 632 C 1650 641 1769 582 1807 554 C 1878 500 1905 427 1875 369 C 1842 307 1739 241 1605 197 C 1273 88 842 80 468 174 C 363 201 222 266 173 310 C 91 384 91 465 175 538 C 204 564 278 609 300 615 C 303 616 323 625 345 635 C 435 675 650 718 830 733 C 925 741 1106 739 1195 730 z" stroke-linecap="round" />
</g>
		<g transform="matrix(0.13 0 0 -0.13 0.67 -0.28)"  >
<path style="stroke: none; stroke-width: 1; stroke-dasharray: none; stroke-linecap: butt; stroke-dashoffset: 0; stroke-linejoin: miter; stroke-miterlimit: 4; fill: rgb(0,0,0); fill-rule: nonzero; opacity: 1;" vector-effect="non-scaling-stroke"  transform=" translate(-1004.53, -427.59)" d="M 466 471 C 444 447 445 393 468 381 C 479 375 507 370 531 370 C 640 367 780 366 930 368 C 960 368 1109 369 1260 369 C 1566 371 1574 373 1551 429 C 1525 491 1552 488 993 488 C 517 489 481 487 466 471 z M 516 459 C 519 453 516 444 509 439 C 498 432 497 430 508 430 C 516 430 530 440 540 452 C 555 471 560 472 573 462 C 585 452 590 452 596 461 C 601 470 607 468 617 454 C 628 439 633 438 639 448 C 644 457 669 461 716 460 C 754 460 820 460 862 461 C 939 464 969 457 936 444 C 927 441 920 427 920 414 C 920 401 916 390 910 390 C 905 390 900 401 900 414 C 900 431 893 439 875 442 C 846 448 844 444 865 424 C 873 415 880 405 880 400 C 880 387 766 391 757 404 C 751 412 747 412 743 403 C 736 385 650 386 650 403 C 650 410 641 416 630 416 C 619 416 610 411 610 404 C 610 396 588 393 545 394 C 507 394 481 399 482 405 C 484 410 492 414 500 412 C 509 411 506 415 495 421 C 466 438 466 438 480 455 C 495 473 506 474 516 459 z M 1013 429 C 1010 406 1011 406 1025 424 C 1033 435 1040 450 1040 457 C 1040 480 1059 471 1066 445 C 1069 431 1076 420 1082 420 C 1087 420 1089 428 1085 439 C 1081 452 1085 459 1100 463 C 1124 469 1134 457 1125 430 C 1120 416 1123 410 1134 410 C 1143 410 1150 406 1150 400 C 1150 386 1076 388 1061 403 C 1050 413 1047 413 1043 403 C 1040 396 1030 390 1020 390 C 1010 390 999 396 996 403 C 991 413 989 413 984 403 C 973 379 960 390 960 423 C 960 464 966 471 993 460 C 1008 455 1014 445 1013 429 z M 1170 453 C 1171 437 1172 437 1185 454 C 1198 471 1200 472 1206 456 C 1212 441 1213 441 1227 457 C 1240 473 1241 472 1236 440 C 1231 407 1231 406 1245 424 C 1253 435 1260 447 1260 452 C 1260 465 1310 461 1310 448 C 1311 440 1316 442 1324 453 C 1333 465 1340 467 1345 460 C 1349 454 1346 442 1339 434 C 1333 426 1330 417 1333 413 C 1337 410 1345 419 1351 434 C 1365 465 1380 468 1387 440 C 1390 429 1396 423 1401 426 C 1406 429 1408 436 1405 441 C 1401 446 1402 455 1406 462 C 1411 470 1417 468 1425 456 C 1436 441 1438 441 1444 455 C 1453 478 1472 462 1464 438 C 1460 424 1462 420 1469 424 C 1475 428 1480 437 1480 445 C 1480 474 1499 469 1519 435 C 1539 400 1532 378 1505 400 C 1496 407 1490 408 1485 400 C 1475 384 1449 388 1434 408 C 1421 424 1421 424 1420 408 C 1420 388 1400 384 1383 401 C 1375 409 1370 409 1366 401 C 1357 387 1293 387 1285 400 C 1281 407 1274 407 1267 402 C 1250 389 1210 394 1199 411 C 1192 422 1190 422 1190 408 C 1190 398 1186 390 1182 390 C 1172 390 1150 435 1150 455 C 1150 476 1170 473 1170 453 z" stroke-linecap="round" />
</g>
		<g transform="matrix(0.13 0 0 -0.13 -38.92 -0.58)"  >
<path style="stroke: none; stroke-width: 1; stroke-dasharray: none; stroke-linecap: butt; stroke-dashoffset: 0; stroke-linejoin: miter; stroke-miterlimit: 4; fill: rgb(0,0,0); fill-rule: nonzero; opacity: 1;" vector-effect="non-scaling-stroke"  transform=" translate(-707.58, -429.89)" d="M 690 440 C 690 435 695 430 701 430 C 706 430 708 426 705 420 C 702 415 703 410 708 410 C 722 410 729 421 723 436 C 717 452 690 455 690 440 z" stroke-linecap="round" />
</g>
		<g transform="matrix(0.13 0 0 -0.13 -24.6 -1.93)"  >
<path style="stroke: none; stroke-width: 1; stroke-dasharray: none; stroke-linecap: butt; stroke-dashoffset: 0; stroke-linejoin: miter; stroke-miterlimit: 4; fill: rgb(0,0,0); fill-rule: nonzero; opacity: 1;" vector-effect="non-scaling-stroke"  transform=" translate(-815, -440)" d="M 805 440 C 802 435 806 430 815 430 C 824 430 828 435 825 440 C 822 446 817 450 815 450 C 813 450 808 446 805 440 z" stroke-linecap="round" />
</g>
		<g transform="matrix(0.13 0 0 -0.13 -58.47 0.07)"  >
<path style="stroke: none; stroke-width: 1; stroke-dasharray: none; stroke-linecap: butt; stroke-dashoffset: 0; stroke-linejoin: miter; stroke-miterlimit: 4; fill: rgb(0,0,0); fill-rule: nonzero; opacity: 1;" vector-effect="non-scaling-stroke"  transform=" translate(-561, -425)" d="M 550 425 C 550 416 555 410 561 412 C 567 414 572 420 572 425 C 572 430 567 436 561 438 C 555 440 550 434 550 425 z" stroke-linecap="round" />
</g>
		<g transform="matrix(0.13 0 0 -0.13 -28.87 0.73)"  >
<path style="stroke: none; stroke-width: 1; stroke-dasharray: none; stroke-linecap: butt; stroke-dashoffset: 0; stroke-linejoin: miter; stroke-miterlimit: 4; fill: rgb(0,0,0); fill-rule: nonzero; opacity: 1;" vector-effect="non-scaling-stroke"  transform=" translate(-783, -420)" d="M 770 420 C 770 415 777 410 786 410 C 794 410 798 415 795 420 C 792 426 785 430 779 430 C 774 430 770 426 770 420 z" stroke-linecap="round" />
</g>
		<g transform="matrix(0.13 0 0 -0.13 40.07 0.07)"  >
<path style="stroke: none; stroke-width: 1; stroke-dasharray: none; stroke-linecap: butt; stroke-dashoffset: 0; stroke-linejoin: miter; stroke-miterlimit: 4; fill: rgb(0,0,0); fill-rule: nonzero; opacity: 1;" vector-effect="non-scaling-stroke"  transform=" translate(-1300, -425)" d="M 1290 431 C 1290 426 1295 418 1300 415 C 1306 412 1310 413 1310 419 C 1310 424 1306 432 1300 435 C 1295 438 1290 437 1290 431 z" stroke-linecap="round" />
</g>
</g>
</g>
</svg>